<?xml version="1.0" encoding="UTF-8" standalone="no"?>
<!-- Created with Inkscape (http://www.inkscape.org/) -->

<svg
   width="484.52026mm"
   height="100.82588mm"
   viewBox="15 0 484.52025 100.82589"
   version="1.1"
   id="svg5"
   sodipodi:docname="logo template - aligned 2.svg"
   inkscape:version="1.2.1 (8a69933317, 2022-10-28, custom)"
   inkscape:export-filename="../312c510b/logo.png"
   inkscape:export-xdpi="96"
   inkscape:export-ydpi="96"
   xmlns:inkscape="http://www.inkscape.org/namespaces/inkscape"
   xmlns:sodipodi="http://sodipodi.sourceforge.net/DTD/sodipodi-0.dtd"
   xmlns="http://www.w3.org/2000/svg"
   xmlns:svg="http://www.w3.org/2000/svg">
  <sodipodi:namedview
     id="namedview7"
     pagecolor="#ffffff"
     bordercolor="#000000"
     borderopacity="0.25"
     inkscape:showpageshadow="2"
     inkscape:pageopacity="0"
     inkscape:pagecheckerboard="true"
     inkscape:deskcolor="#d1d1d1"
     inkscape:document-units="mm"
     showgrid="false"
     showguides="false"
     inkscape:zoom="1"
     inkscape:cx="864"
     inkscape:cy="264.5"
     inkscape:window-width="2560"
     inkscape:window-height="1016"
     inkscape:window-x="0"
     inkscape:window-y="0"
     inkscape:window-maximized="1"
     inkscape:current-layer="layer1"
     shape-rendering="auto">
    <sodipodi:guide
       position="106.65639,36.072687"
       orientation="0,-1"
       id="guide177"
       inkscape:locked="false" />
    <sodipodi:guide
       position="148.32583,57.958216"
       orientation="0,-1"
       id="guide179"
       inkscape:locked="false" />
    <sodipodi:guide
       position="186.54573,29.79456"
       orientation="0,-1"
       id="guide181"
       inkscape:locked="false" />
    <sodipodi:guide
       position="170.7069,62.457167"
       orientation="0,-1"
       id="guide183"
       inkscape:locked="false" />
    <sodipodi:guide
       position="171.11101,20.924817"
       orientation="0,-1"
       id="guide185"
       inkscape:locked="false" />
    <sodipodi:guide
       position="75.241919,130.33859"
       orientation="1,0"
       id="guide187"
       inkscape:locked="false" />
    <sodipodi:guide
       position="240.78945,102.679"
       orientation="-0.79524658,0.60628613"
       id="guide493"
       inkscape:locked="false" />
    <sodipodi:guide
       position="207.29485,96.154338"
       orientation="-0.98354532,0.18066159"
       id="guide610"
       inkscape:locked="false" />
    <sodipodi:guide
       position="310.12099,39.776857"
       orientation="0,-1"
       id="guide629"
       inkscape:locked="false" />
    <sodipodi:guide
       position="308.87418,26.761153"
       orientation="0,-1"
       id="guide633"
       inkscape:locked="false" />
  </sodipodi:namedview>
  <defs
     id="defs2" />
  <g
     inkscape:groupmode="layer"
     id="layer2"
     inkscape:label="Layer 2">
    <rect
       style="display:inline;fill:#f9f9f9;stroke-width:0.264583"
       id="rect4975"
       width="481.31531"
       height="94.037666"
       x="18.204967"
       y="6.7882175" />
    <path
       style="fill:#f9f9f9"
       d="M 12.247238,203.25 12.5,26 921.75,25.749452 1831,25.498905 V 202.99945 380.5 H 921.49724 11.994476 Z M 209.26606,343.0315 C 218.25705,341.12626 228,336.72128 228,334.56152 c 0,-1.47601 -0.67125,-1.55434 -5.90378,-0.68897 -11.4972,1.90144 -25.95197,-4.49601 -35.46211,-15.69497 -6.51089,-7.6671 -15.0996,-21.31843 -19.71617,-31.33786 C 164.6778,281.97787 155.19415,260.45 145.84318,239 126.47062,194.56173 122.93435,187.50158 114.86599,177.15421 98.328611,155.94563 77.473003,150.55745 53.679012,161.34616 c -9.003817,4.08253 -8.958298,6.04988 0.12494,5.39998 5.534667,-0.396 7.540091,-0.10708 10.75,1.54879 7.684319,3.96402 15.694252,14.47653 20.942027,27.48501 2.969808,7.36173 3.139351,8.34023 1.931087,11.14516 C 86.698561,208.6163 77.79819,228.225 67.648464,250.5 48.061701,293.4859 45.614467,297.60717 38.866933,298.96952 33.317075,300.09005 32,300.58832 32,301.56739 c 0,0.54855 9.059768,0.93261 22,0.93261 21.874339,0 26.367167,-0.74696 18.017006,-2.99542 -7.251266,-1.95256 -7.586731,-5.2163 -1.894626,-18.43282 L 74.24476,271.5 h 20.284302 20.284298 l 3.21682,7.75 c 7.86397,18.946 14.31401,29.39536 25.25352,40.91182 18.41502,19.38622 42.6998,27.8034 65.98236,22.86968 z M 1215.938,327.5147 c 17.7507,-7.90823 33.5108,-29.72788 43.5012,-60.22686 5.2326,-15.97412 5.3142,-16.36109 12.5497,-59.56929 3.1574,-18.85479 5.9984,-34.53921 6.3135,-34.85426 0.315,-0.31505 5.6634,-1.02489 11.8852,-1.57742 6.2218,-0.55253 12.2233,-1.42728 13.3366,-1.94389 2.9824,-1.3839 9.6274,1.08332 11.1962,4.15702 1.5715,3.07913 1.1312,6.66993 -3.3544,27.3604 -6.493,29.9495 -6.9751,42.78649 -1.9896,52.97652 3.5454,7.24657 7.5708,9.78325 16.5436,10.42525 15.8946,1.13725 34.7857,-9.51186 47.512,-26.78294 l 4.068,-5.52077 v 10.08618 c 0,9.24512 0.2219,10.42209 2.6608,14.11448 3.347,5.0673 8.4213,7.50647 16.874,8.11126 11.8603,0.8486 24.4579,-3.51942 34.2148,-11.86349 5.3712,-4.59337 5.4802,-5.95909 1.09,-13.65689 -2.7343,-4.79426 -3.3211,-5.03291 -5.7569,-2.34138 -2.296,2.53704 -7.1414,4.47469 -9.2073,3.68193 -1.4142,-0.54267 -1.5738,-1.7093 -1.0758,-7.86388 0.4607,-5.69321 12.8546,-74.53919 15.2119,-84.49883 l 0.5377,-2.27215 -18.7386,0.27215 -18.7387,0.27216 -3.1552,16 c -5.4243,27.50711 -8.7195,37.40463 -17.2673,51.86588 -5.6698,9.59211 -14.5953,18.25194 -19.8227,19.23262 -10.8385,2.0333 -11.8102,-9.16689 -3.8261,-44.0985 2.7643,-12.09405 4.8086,-23.78768 5.1715,-29.58185 l 0.6002,-9.58185 -3.0422,-3.40485 -3.0423,-3.40485 -8.4216,2.7426 c -16.0035,5.21177 -25.298,6.81224 -43.1511,7.43046 l -16.8848,0.5847 0.7273,-4.89218 c 1.3939,-9.3755 7.289,-30.95852 9.8077,-35.90762 9.1583,-17.995725 22.5959,-10.95251 22.7103,11.90337 l 0.024,4.88793 7.5585,-0.68493 c 10.6663,-0.96655 12.4412,-1.79621 12.4429,-5.81618 0,-4.34727 2.5805,-18.82463 4.5751,-25.686018 1.4888,-5.121262 1.4807,-5.573773 -0.1218,-6.745527 -3.4919,-2.553296 -13.0664,-3.843133 -28.4547,-3.833268 -13.3754,0.0086 -16.528,0.328061 -23,2.330848 -16.8248,5.206521 -27.2176,14.263105 -35.4252,30.870535 -3.7442,7.57605 -7.9081,20.66008 -9.0961,28.58232 l -0.7058,4.70636 h -9.4375 -9.4375 l -1.4489,3.46788 c -0.797,1.90734 -1.449,5.49876 -1.449,7.98095 0,5.06329 -0.2269,4.93053 10.4068,6.09013 3.2487,0.35427 6.4091,0.83688 7.023,1.07248 0.7934,0.30445 0.463,4.97798 -1.1423,16.15845 -1.2422,8.65156 -3.8656,29.23011 -5.8297,45.73011 -3.7918,31.85462 -7.3991,52.36288 -10.3721,58.9692 -0.9977,2.21694 -3.0356,5.1558 -4.5286,6.5308 -2.4113,2.22078 -3.7388,2.53652 -11.8858,2.82697 -8.1812,0.29168 -16.6462,-0.83936 -25.3638,-3.38894 -1.9557,-0.57197 -2.355,-0.0631 -3.6959,4.71037 -0.8269,2.94338 -1.794,7.85423 -2.1491,10.913 -0.6428,5.53546 -0.6283,5.57478 3.1163,8.43092 2.0692,1.57824 6.2729,3.92321 9.3417,5.21106 7.7322,3.24496 21.9186,2.91949 30.0175,-0.68868 z m -504.64637,-4.58677 c 9.23502,-2.07978 24.06245,-9.13814 24.53169,-11.67793 0.26575,-1.43838 -0.41856,-1.75 -3.84291,-1.75 -6.37683,0 -23.44294,-3.76659 -31.90294,-7.04117 -20.99743,-8.12737 -35.67729,-21.969 -58.28708,-54.95883 -10.37463,-15.13756 -15.52711,-21.09612 -22.02783,-25.47396 l -4.93489,-3.32335 5.24518,-1.12489 c 11.28197,-2.41955 18.82882,-7.96916 24.16168,-17.76737 4.72944,-8.68955 5.38589,-23.19634 1.47067,-32.50004 -3.91858,-9.31168 -15.01273,-16.80095 -30.2052,-20.39047 -10.09525,-2.38521 -99.5,-3.4097 -99.5,-1.14018 0,0.91856 1.39816,1.68957 3.75,2.06792 2.0625,0.3318 4.81004,1.34813 6.10563,2.2585 5.07672,3.56724 5.14437,4.37252 5.14437,61.23672 0,29.09892 -0.28446,54.32944 -0.63214,56.06782 -0.94506,4.72528 -5.36408,8.90515 -10.23874,9.68464 -2.51195,0.40168 -4.12912,1.1977 -4.12912,2.03247 0,1.13678 6.00443,1.37219 35,1.37219 28.99557,0 35,-0.23541 35,-1.37219 0,-0.81173 -1.53167,-1.6186 -3.75,-1.97547 -2.0625,-0.3318 -4.81004,-1.34813 -6.10563,-2.2585 C 571.04599,271.31138 571,270.73919 571,210.88923 v -55.67502 l 7.75,0.53993 c 11.57232,0.80623 19.55685,5.01029 24.05835,12.66736 2.43752,4.14623 2.69165,5.52263 2.69165,14.5785 0,8.35042 -0.3567,10.65983 -2.16237,14 -4.49383,8.31278 -13.83445,14.43539 -22.08763,14.47804 -2.38966,0.0123 -4.25,0.49954 -4.25,1.113 0,0.60007 1.4625,2.80155 3.25,4.89219 1.7875,2.09063 7.05562,11.83716 11.70694,21.65896 15.01769,31.7116 22.55391,44.31487 33.69237,56.34573 14.1682,15.30336 32.38058,25.54053 51.5146,28.95636 7.49146,1.33738 24.88833,0.56441 34.12772,-1.51635 z m -345.82659,-5.96084 c 12.5376,-3.26563 21.20092,-10.41038 26.63605,-21.96709 5.52094,-11.73916 6.05496,-15.58513 6.63017,-47.75 l 0.53203,-29.75 H 424.13164 449 l -0.004,25.25 c -0.003,23.56191 -0.13866,25.4713 -2.02189,28.56018 -2.01701,3.30871 -7.11018,6.18982 -10.94199,6.18982 -1.13966,0 -2.03212,0.65876 -2.03212,1.5 0,1.30476 4.55556,1.5 35,1.5 28.99557,0 35,-0.23541 35,-1.37219 0,-0.81173 -1.53167,-1.6186 -3.75,-1.97547 -2.0625,-0.3318 -4.81004,-1.34813 -6.10563,-2.2585 -5.09637,-3.58105 -5.14494,-4.18246 -5.13678,-63.61172 0.004,-30.40517 0.4355,-59.00365 0.9585,-63.5522 1.74448,-15.17181 7.61888,-23.9021 19.78391,-29.40204 7.47705,-3.38045 5.61061,-5.14465 -6.75,-6.38021 -23.93244,-2.39228 -46.74887,14.4157 -52.46022,38.6454 -1.13535,4.81661 -1.51389,12.67445 -1.525,31.65693 L 449,207.5 h -25 -25 v -25.54966 c 0,-21.23643 0.26444,-26.06103 1.56642,-28.57878 1.57318,-3.0422 6.58539,-5.87156 10.40146,-5.87156 1.13966,0 2.03212,-0.65876 2.03212,-1.5 0,-1.30476 -4.55556,-1.5 -35,-1.5 -30.44444,0 -35,0.19524 -35,1.5 0,0.96879 0.97388,1.50132 2.75,1.50374 3.39091,0.005 8.60423,3.08106 10.73698,6.33604 1.42723,2.17823 1.5649,9.28148 1.30433,67.29775 L 357.5,286 l -2.28335,5.64709 c -3.04262,7.5249 -8.74764,13.79128 -16.14572,17.73442 -3.33901,1.77968 -6.07093,3.85328 -6.07093,4.60801 0,1.88227 10.73519,4.31183 19.5399,4.42222 3.87195,0.0485 9.68826,-0.60155 12.92514,-1.44465 z M 272,297.11129 c 0,-0.80822 -1.53778,-1.6772 -3.67887,-2.07887 -2.18704,-0.41029 -5.02894,-2.04023 -7.00816,-4.01945 l -3.32929,-3.32929 0.25816,-57.84184 L 258.5,172 l 7.2282,-0.88607 c 9.73084,-1.19285 15.33572,0.39736 20.85542,5.91706 5.41824,5.41824 7.7817,12.39438 7.7817,22.96901 0,9.73695 -2.16074,16.73272 -6.86593,22.22968 -5.98164,6.9882 -14.60888,9.33183 -19.67689,5.34534 -1.61229,-1.26823 -2.92905,-1.6272 -3.85947,-1.05217 -1.18326,0.73129 -1.06126,1.59527 0.75243,5.32838 4.24617,8.73989 12.8436,12.90526 26.78454,12.97685 11.1596,0.0573 18.15711,-1.91575 26.46155,-7.46124 11.57155,-7.72718 17.59493,-18.30355 18.71795,-32.86656 1.79748,-23.30934 -12.24046,-39.55657 -38.06302,-44.05338 -10.44124,-1.81826 -31.14137,-0.66358 -52.78256,2.94428 -10.26634,1.71153 -24.14236,3.7497 -30.83559,4.52927 -15.15385,1.76498 -16.28514,2.45841 -6.6366,4.06791 2.12395,0.3543 4.93645,1.71891 6.25,3.03246 L 217,177.40909 V 232.55455 287.7 l -3.32113,3.32113 c -1.97198,1.97198 -4.81561,3.6015 -7,4.01129 -2.14109,0.40167 -3.67887,1.27065 -3.67887,2.07887 0,1.15811 5.72881,1.38871 34.5,1.38871 28.77119,0 34.5,-0.2306 34.5,-1.38871 z m 915,-33.41056 c 3.025,-1.20805 8.5802,-4.51522 12.3449,-7.34927 6.1981,-4.66598 6.7915,-5.41931 6.2807,-7.97326 -0.6663,-3.33192 -5.2405,-10.8782 -6.5937,-10.8782 -0.5187,0 -2.6009,1.125 -4.627,2.5 -4.0961,2.77967 -8.1762,3.25962 -9.0199,1.06103 -0.6758,-1.76121 0.4459,-7.45825 6.4112,-32.56103 4.2505,-17.88687 4.6367,-20.57542 4.6688,-32.5 0.032,-11.77509 -0.188,-13.42401 -2.3315,-17.5 -3.1469,-5.98398 -4.8739,-7.82513 -9.6041,-10.23927 -15.3359,-7.8269 -38.4193,1.5468 -54.5238,22.14098 -3.0018,3.83866 -5.609,6.82821 -5.7938,6.64344 -0.1848,-0.18477 0.367,-3.73905 1.2261,-7.89839 1.9564,-9.47131 1.972,-13.98069 0.062,-18.0049 -2.6756,-5.63832 -4.5976,-6.10332 -13.3272,-3.2242 -10.7904,3.55882 -24.1992,6.52552 -32.7673,7.24979 l -7.3011,0.61717 -1.0524,4.90691 c -0.5787,2.6988 -1.0523,6.17904 -1.0523,7.73386 0,2.7147 0.225,2.84561 5.6661,3.29683 4.4365,0.3679 6.0891,0.9916 7.615,2.87383 2.587,3.1911 2.375,4.9135 -6.251,50.80536 -3.8665,20.57078 -7.0301,37.78328 -7.0301,38.25 0,0.46672 8.4588,0.84859 18.7974,0.84859 h 18.7975 l 1.8135,-10.75 c 4.1133,-24.38241 10.4496,-43.97927 18.7511,-57.99342 4.7299,-7.9847 15.4221,-18.66342 20.2735,-20.24792 3.7641,-1.22939 4.0324,-1.1689 6.25,1.40916 3.437,3.99575 3.0989,12.34646 -1.2721,31.42031 -7.9436,34.66431 -8.2563,44.43837 -1.672,52.26336 4.228,5.02476 7.4033,5.94829 19.2611,5.60217 7.9411,-0.2318 11.8404,-0.84178 16,-2.50293 z m -430.31996,-0.76967 c 14.98813,-3.09588 26.98892,-9.84414 36.87207,-20.73381 6.33863,-6.98418 13.28992,-20.38653 15.9215,-30.69725 2.31387,-9.06589 3.11464,-26.34489 1.53417,-33.10425 -4.07128,-17.41212 -15.90798,-29.30206 -33.23862,-33.38811 -8.039,-1.89535 -26.23356,-1.90418 -35.14081,-0.017 -21.06395,4.46271 -40.31436,21.13453 -48.00157,41.57179 -5.23195,13.90968 -7.03633,31.20117 -4.50152,43.1384 2.61618,12.32044 11.47909,24.01228 22.16574,29.24077 11.01153,5.38744 29.55337,7.0539 44.38904,3.98951 z M 888.5,261.1258 c 12.23241,-3.90798 26.5,-13.63525 26.5,-18.06702 0,-2.72732 -2.5642,-10.32874 -4.11423,-12.19642 -0.87637,-1.05596 -1.70694,-0.8378 -4.27881,1.12385 -8.31813,6.34455 -20.9452,9.93967 -29.37776,8.3643 C 864.72377,238.01424 860.72565,225.33827 864.50227,200 c 3.81597,-25.60227 12.4593,-39.41165 24.82319,-39.65982 7.6889,-0.15433 11.6547,5.21495 11.66896,15.79853 0.005,3.93676 0.17637,4.17075 3.50558,4.79531 3.14911,0.59078 8.11348,0.1758 12.65186,-1.05758 1.24522,-0.33841 1.9524,-2.59395 2.87275,-9.16268 0.6715,-4.79257 2.01105,-11.27738 2.97677,-14.41069 l 1.75586,-5.69693 -4.41754,-2.07648 c -8.47461,-3.98354 -16.80566,-5.26996 -30.8397,-4.76202 -13.95345,0.50502 -21.08773,2.37052 -30.77351,8.04676 -20.12261,11.79264 -33.1965,37.09497 -34.45689,66.6856 -0.72849,17.10295 2.35141,27.38571 10.70449,35.7388 8.08608,8.08608 15.83237,10.35285 33.52591,9.81059 9.38607,-0.28766 13.74262,-0.9245 20,-2.92359 z m 118,-0.004 c 11.2066,-3.60084 19.5092,-8.86244 27.987,-17.73598 7.9931,-8.36634 14.2781,-19.59055 17.0126,-30.38256 9.0984,-35.90736 -2.3858,-60.62306 -31.6524,-68.12083 -10.0418,-2.57258 -30.96807,-1.55219 -41.3376,2.01567 -25.6759,8.83433 -41.73882,29.00094 -46.12664,57.91085 -4.69006,30.90135 7.85063,52.20449 34.21134,58.11556 10.60278,2.37755 29.56132,1.52111 39.9057,-1.80271 z m 504.7805,0.96406 c 17.3047,-4.71865 25.9356,-15.52212 26.0328,-32.58576 0.08,-13.96688 -5.5113,-21.77633 -30.2155,-42.20564 -9.8142,-8.11594 -12.618,-12.05514 -12.4979,-17.55901 0.083,-3.81187 0.6298,-5.05139 3.2658,-7.40668 2.5945,-2.3182 4.0826,-2.82867 8.2458,-2.82867 2.9614,0 6.2655,0.70037 7.9229,1.67941 4.4408,2.62324 8.0803,10.31737 8.8256,18.65797 l 0.64,7.16262 6.3941,-0.25025 c 3.5167,-0.13763 8.0674,-0.70083 10.1126,-1.25155 l 3.7185,-1.0013 0.6775,-8.34922 c 0.3726,-4.59208 1.5233,-11.89963 2.5571,-16.23901 1.4061,-5.90153 1.585,-8.08207 0.71,-8.65281 -2.2426,-1.46278 -16.5357,-5.67396 -23.1924,-6.83318 -10.2603,-1.78676 -33.3336,-0.69889 -41.6291,1.96273 -8.4234,2.70269 -15.5182,7.44925 -19.0655,12.75529 -3.7964,5.67875 -6.1373,15.35462 -5.5337,22.87378 0.9037,11.25785 6.6787,19.61025 23.8399,34.47971 11.0079,9.53784 17.911,17.48199 17.911,20.61215 0,10.58517 -17.5837,14.19973 -25.6493,5.27254 -2.9133,-3.22453 -5.3507,-10.89862 -5.3507,-16.84644 0,-5.92263 -1.1849,-6.55388 -10.3211,-5.49865 -10.2132,1.17963 -10.3061,1.2603 -11.0964,9.63946 -0.38,4.02971 -1.5679,11.08016 -2.6396,15.66765 -1.0717,4.5875 -1.6647,8.80024 -1.3177,9.36165 1.5161,2.45307 15.0799,7.01762 27.3748,9.21227 5.7141,1.01996 34.651,-0.29401 40.2805,-1.82906 z m 115.3808,0.0816 c 29.506,-8.22973 48.0815,-32.54627 50.9565,-66.70545 2.1766,-25.86225 -11.7999,-45.93181 -35.417,-50.85686 -8.6739,-1.80882 -26.7812,-1.38633 -35.4344,0.82678 -24.2637,6.20561 -42.488,24.51225 -49.3453,49.56814 -2.2116,8.08119 -3.0319,28.1622 -1.4455,35.38828 3.6838,16.7798 15.9589,28.48892 34.233,32.6546 7.7134,1.75831 28.8279,1.2512 36.4527,-0.87549 z"
       id="path5046"
       transform="matrix(0.26458333,0,0,0.26458333,15,0)" />
    <path
       style="fill:#f9f9f9"
       d="m 738.39626,247.10415 c -4.09634,-1.82742 -6.82399,-5.8278 -8.94244,-13.11502 -2.29784,-7.90429 -1.51142,-27.2285 1.60706,-39.48913 2.55813,-10.05755 7.65469,-21.59046 11.92229,-26.97876 3.45564,-4.36309 10.15269,-8.02124 14.68467,-8.02124 4.51817,0 9.49963,3.83802 12.33216,9.50144 2.35824,4.71513 2.49527,5.87745 2.41649,20.49856 -0.0681,12.63725 -0.48658,16.97755 -2.2659,23.5 -2.59381,9.50815 -7.97511,21.22802 -12.19139,26.55151 -5.65889,7.14494 -13.60243,10.21169 -19.56294,7.55264 z"
       id="path5117"
       transform="matrix(0.26458333,0,0,0.26458333,15,0)" />
    <path
       style="fill:#f9f9f9"
       d="m 81.452763,255.01089 c 1.335149,-3.01901 4.993225,-11.35526 8.129058,-18.525 3.135832,-7.16974 5.802374,-12.91214 5.925649,-12.76089 C 95.918809,224.22969 110,259.45915 110,259.98359 110,260.26761 103.03067,260.5 94.51261,260.5 H 79.02522 Z"
       id="path5119"
       transform="matrix(0.26458333,0,0,0.26458333,15,0)" />
    <path
       style="fill:#f9f9f9"
       d="m 1604.4152,247.07859 c -7.2216,-3.14428 -10.4974,-11.77476 -10.4786,-27.60745 0.028,-23.84611 8.4196,-48.03917 19.6277,-56.58796 3.0289,-2.31027 4.7978,-2.88318 8.9018,-2.88318 6.7922,0 10.0761,2.29135 13.378,9.33471 2.4993,5.33131 2.6499,6.49062 2.5539,19.66529 -0.085,11.65935 -0.5338,15.62522 -2.685,23.72085 -4.7192,17.76015 -12.2643,29.8206 -21.213,33.90814 -4.7456,2.16764 -6.0095,2.22399 -10.0848,0.4496 z"
       id="path5121"
       transform="matrix(0.26458333,0,0,0.26458333,15,0)" />
  </g>
  <g
     inkscape:label="Layer 1"
     inkscape:groupmode="layer"
     id="layer1"
     transform="translate(9.8188939,-25.415171)">
    <text
       xml:space="preserve"
       style="font-size:50.8px;fill:#008000;stroke-width:0.264583"
       x="20.321239"
       y="99.410988"
       id="text113"><tspan
         id="tspan111"
         style="font-style:normal;font-variant:normal;font-weight:900;font-stretch:normal;font-size:50.8px;font-family:'Cinzel Decorative';-inkscape-font-specification:'Cinzel Decorative Heavy';fill:#28170b;stroke-width:0.264583"
         x="20.321239"
         y="99.410988"
         dx="-4.5 5.6300049 -1.1300001 0.07"
         dy="6.02 -0.41999999 -5.599997"
         sodipodi:role="line"><tspan
   style="font-size:56.4444px"
   id="tspan5241">A</tspan>PHR<tspan
   style="font-style:italic;font-variant:normal;font-weight:bold;font-stretch:normal;font-size:74.0833px;font-family:vollkorn;-inkscape-font-specification:vollkorn;letter-spacing:0px;fill:#28170b"
   id="tspan189"
   dx="3.5 -2.0372868e-06 0 0 0 -2.75 0 0"
   dy="-0.87 0 0 0 0.90999997 -1.55">oco<tspan
   style="font-size:74.0833px;fill:#28170b"
   id="tspan1538"
   dy="0.63999999">n</tspan>fuso</tspan></tspan></text>
    <text
       xml:space="preserve"
       style="font-size:3.175px;fill:#800080;stroke-width:0.264583"
       x="4.7780299"
       y="27.841379"
       id="text435"><tspan
         sodipodi:role="line"
         id="tspan433"
         style="stroke-width:0.264583"
         x="4.7780299"
         y="27.841379">|</tspan></text>
  </g>
</svg>
